<svg width="58" height="54" viewBox="0 0 58 54" fill="none" xmlns="http://www.w3.org/2000/svg">
<path d="M51.395 19.7465C51.8733 19.7451 52.3344 19.9249 52.6856 20.2497C53.0367 20.5745 53.2519 21.0202 53.2877 21.4972V48.1368C53.2887 49.6074 52.7191 51.0209 51.6989 52.08C50.6787 53.139 49.2874 53.761 47.8178 53.8149H9.75584C8.28531 53.8159 6.87175 53.2463 5.81269 52.2261C4.75363 51.2059 4.13169 49.8146 4.07777 48.345V21.6392C4.07642 21.1609 4.25623 20.6998 4.58103 20.3486C4.90583 19.9975 5.35153 19.7824 5.82851 19.7465H51.395ZM36.7267 27.639L36.6131 27.7336L25.7775 39.4778L20.8565 34.7461C20.607 34.5018 20.2768 34.3573 19.9281 34.3399C19.5794 34.3224 19.2364 34.4333 18.9638 34.6514L18.8597 34.7461L16.8345 36.563C16.7059 36.6627 16.6003 36.7888 16.5247 36.9328C16.4491 37.0769 16.4054 37.2355 16.3964 37.3979C16.3874 37.5603 16.4135 37.7227 16.4727 37.8742C16.532 38.0257 16.6231 38.1627 16.7399 38.2759L16.8345 38.38L23.7712 44.9477C24.3103 45.4822 25.0372 45.7845 25.7964 45.7899C26.1729 45.8003 26.5472 45.7305 26.8947 45.5853C27.2422 45.4401 27.5549 45.2228 27.8121 44.9477L33.4145 38.9951L33.8214 38.5788L34.2189 38.1529L34.7394 37.604L34.9381 37.3958L35.3356 36.9794L40.654 31.3676C40.8482 31.1259 40.9602 30.8286 40.9739 30.5188C40.9875 30.2091 40.902 29.9031 40.7297 29.6453L40.654 29.5506L38.6288 27.7336C38.3788 27.4868 38.0467 27.3407 37.6958 27.3232C37.3449 27.3058 36.9999 27.4182 36.7267 27.639ZM51.395 0.81958C52.9009 0.81958 54.3452 1.4178 55.41 2.48265C56.4749 3.54749 57.0731 4.99173 57.0731 6.49765V12.1757C57.0731 12.6777 56.8737 13.1591 56.5187 13.5141C56.1638 13.869 55.6824 14.0684 55.1804 14.0684H2.18508C1.68311 14.0684 1.20169 13.869 0.846745 13.5141C0.491797 13.1591 0.292389 12.6777 0.292389 12.1757V6.49765C0.292389 4.99173 0.890612 3.54749 1.95546 2.48265C3.0203 1.4178 4.46454 0.81958 5.97046 0.81958H51.395Z" fill="white"/>
</svg>
