<svg width="68" height="68" viewBox="0 0 68 68" fill="none" xmlns="http://www.w3.org/2000/svg">
<g clip-path="url(#clip0_42_267)">
<path d="M3.66945 61.5717C3.30548 61.5703 2.94483 61.6409 2.60829 61.7795C2.27175 61.9182 1.96598 62.122 1.70862 62.3794C1.45125 62.6368 1.24738 62.9425 1.10876 63.2791C0.970143 63.6156 0.899519 63.9763 0.900962 64.3402C0.902209 64.7025 0.974819 65.0609 1.11464 65.3951C1.25446 65.7293 1.45876 66.0326 1.71585 66.2878C1.97295 66.543 2.27781 66.7451 2.61301 66.8824C2.94822 67.0198 3.3072 67.0897 3.66945 67.0883H64.3307C64.6929 67.0897 65.0519 67.0197 65.3871 66.8824C65.7222 66.745 66.0271 66.543 66.2842 66.2878C66.5413 66.0326 66.7455 65.7292 66.8854 65.3951C67.0252 65.0609 67.0978 64.7025 67.099 64.3402C67.1005 63.9763 67.0299 63.6156 66.8912 63.2791C66.7526 62.9426 66.5488 62.6368 66.2914 62.3794C66.0341 62.1221 65.7283 61.9182 65.3918 61.7796C65.0553 61.6409 64.6946 61.5703 64.3307 61.5717H3.66945Z" fill="white"/>
<path d="M13.0332 42.2742C9.41432 42.2742 6.41748 45.271 6.41748 48.89V64.3402C6.41876 64.7025 6.49139 65.0609 6.63122 65.395C6.77105 65.7292 6.97534 66.0325 7.23242 66.2877C7.4895 66.5429 7.79433 66.745 8.1295 66.8823C8.46468 67.0197 8.82363 67.0897 9.18586 67.0883H20.2189C20.947 67.0857 21.6445 66.7953 22.1593 66.2805C22.6741 65.7657 22.9644 65.0683 22.967 64.3402V48.89C22.967 45.271 19.9701 42.2742 16.3512 42.2742H13.0332Z" fill="white"/>
<path d="M32.3512 32.89C28.7324 32.89 25.7354 35.8867 25.7354 39.5058V64.3402C25.738 65.0683 26.0283 65.7658 26.5432 66.2806C27.058 66.7954 27.7554 67.0857 28.4835 67.0883H39.5166C40.2446 67.0857 40.9421 66.7954 41.4569 66.2806C41.9717 65.7658 42.262 65.0683 42.2646 64.3402V39.5058C42.2646 35.8867 39.2677 32.89 35.6488 32.89H32.3512Z" fill="white"/>
<path d="M51.6487 24.6254C48.0299 24.6254 45.033 27.6223 45.033 31.2412V64.3402C45.0355 65.0683 45.3259 65.7658 45.8407 66.2806C46.3556 66.7954 47.0531 67.0857 47.7811 67.0883H58.8141C59.1763 67.0897 59.5353 67.0197 59.8705 66.8824C60.2057 66.745 60.5105 66.543 60.7676 66.2878C61.0247 66.0326 61.229 65.7292 61.3688 65.3951C61.5087 65.0609 61.5813 64.7025 61.5826 64.3402V31.2412C61.5826 27.6223 58.5653 24.6254 54.9465 24.6254H51.6487Z" fill="white"/>
<path d="M49.0657 0.911743C48.3371 0.913159 47.6387 1.20284 47.1231 1.7175C46.6074 2.23217 46.3163 2.92999 46.3135 3.65855C46.3121 4.02113 46.3822 4.38043 46.5198 4.71589C46.6574 5.05135 46.8598 5.35638 47.1155 5.61351C47.3711 5.87065 47.6749 6.07484 48.0096 6.21442C48.3442 6.35399 48.7031 6.42619 49.0657 6.42689H51.9148C36.3188 19.8356 19.9886 28.1649 3.16174 31.2828C2.44444 31.4187 1.8103 31.8335 1.39837 32.4362C0.986447 33.039 0.830351 33.7805 0.964313 34.4982C1.09546 35.215 1.505 35.8507 2.10345 36.2665C2.70191 36.6823 3.44061 36.8443 4.15814 36.7171C22.2758 33.3601 39.7083 24.3574 56.0673 10.1593V13.407C56.0659 13.7691 56.1359 14.128 56.2731 14.4631C56.4104 14.7982 56.6123 15.103 56.8674 15.3601C57.1225 15.6171 57.4257 15.8214 57.7597 15.9613C58.0937 16.1012 58.452 16.1739 58.8141 16.1754C59.1781 16.1768 59.5387 16.1061 59.8752 15.9675C60.2117 15.8289 60.5175 15.6251 60.7748 15.3677C61.0322 15.1104 61.2361 14.8046 61.3747 14.4681C61.5133 14.1316 61.5839 13.771 61.5825 13.407V5.28509C61.583 2.90504 59.5677 0.911222 57.1876 0.911743H49.0657Z" fill="white"/>
</g>
<defs>
<clipPath id="clip0_42_267">
<rect width="66.1818" height="66.1818" fill="white" transform="translate(0.909119 0.909119)"/>
</clipPath>
</defs>
</svg>
