<svg width="76" height="50" viewBox="0 0 76 50" fill="none" xmlns="http://www.w3.org/2000/svg">
<path d="M9.61117 2.11893L1.56286 25.5865L11.1554 28.8764L19.2037 5.40874L9.61117 2.11893Z" fill="white"/>
<path d="M26.1722 4.10588L25.2391 4.56477C24.0766 5.13074 22.7152 5.20722 21.5068 4.77892L19.9465 4.22825C19.8547 4.16706 19.763 4.12117 19.6712 4.09058L10.0651 0.801857C9.34613 0.557115 8.55072 0.939525 8.30597 1.65846L0.244776 25.1384C0.122405 25.4902 0.152998 25.8726 0.305962 26.1939C0.458926 26.5151 0.749557 26.7751 1.10137 26.8975L10.6922 30.1862C10.8452 30.2321 10.9981 30.2627 11.1358 30.2627C11.7171 30.2627 12.2524 29.8956 12.4513 29.3296L20.0536 7.21105L20.5737 7.3946C22.4857 8.06764 24.6272 7.94527 26.4628 7.05808L27.3959 6.59919C28.5431 6.03322 29.8892 5.95674 31.0976 6.36974L48.7343 12.4424C48.5508 13.1766 48.1837 14.0485 47.5106 14.5227C46.7611 15.0428 45.6445 15.0428 44.176 14.538L36.3137 11.8459C35.9466 11.7235 35.5488 11.7541 35.2123 11.9376C34.8758 12.1212 34.6311 12.4424 34.524 12.8095C34.5087 12.8554 33.4226 16.9243 29.9504 18.7904C27.763 19.9682 25.0402 20.0141 21.8433 18.9281C21.1243 18.6833 20.3289 19.0657 20.0842 19.7847C19.8395 20.5036 20.2219 21.299 20.9408 21.5438C22.7764 22.1709 24.5049 22.4921 26.111 22.4921C27.9771 22.4921 29.6903 22.0791 31.2506 21.2378C34.3557 19.5705 35.9618 16.6489 36.6961 14.9051L43.2582 17.1537C45.5986 17.9644 47.5565 17.842 49.0709 16.7866C51.503 15.104 51.6253 11.6929 51.6406 11.5399C51.6559 10.9281 51.2735 10.3927 50.7076 10.1938L31.9848 3.73876C30.1033 3.09632 27.9771 3.23398 26.1722 4.10588ZM10.2945 27.1117L3.31935 24.7254L10.4628 3.87643L17.4379 6.26267L10.2945 27.1117Z" fill="white"/>
<path d="M53.7054 6.73287L64.6089 29.0162L73.7172 24.5594L62.8137 2.27608L53.7054 6.73287Z" fill="white"/>
<path d="M62.9141 28.6872L59.6254 31.7159C56.6426 34.4539 53.2774 36.7637 49.6368 38.5381L32.1836 47.0735C31.4188 47.4559 30.4857 47.1346 30.1033 46.3545C29.7209 45.5897 30.0421 44.6566 30.8223 44.2742L31.0364 44.1671L40.5814 39.5017C41.2697 39.1652 41.5603 38.3392 41.2238 37.6509C40.8873 36.9625 40.0613 36.6719 39.3729 37.0084L29.828 41.6738L25.0249 44.0295C24.2601 44.4119 23.327 44.0907 22.9446 43.3106C22.7611 42.9434 22.7305 42.5151 22.8681 42.1327C23.0058 41.735 23.2811 41.4291 23.6483 41.2455L27.2735 39.4712L37.6444 34.3927C38.3328 34.0562 38.6234 33.2302 38.2869 32.5419C37.9504 31.8536 37.1244 31.5629 36.436 31.8994L26.0498 36.9931L25.6521 37.192L20.696 39.6241C20.3289 39.8077 19.9006 39.8383 19.5182 39.7006C19.1205 39.5629 18.8146 39.2876 18.631 38.9205C18.2486 38.1557 18.5698 37.2226 19.35 36.8402L21.0632 35.9989L24.566 34.2857L25.545 33.8115L33.5909 29.865C34.2792 29.5285 34.5699 28.7025 34.2334 28.0142C33.8968 27.3258 33.0708 27.0352 32.3825 27.3717L23.6635 31.6394L19.8547 33.5056C19.0899 33.8727 18.1568 33.5667 17.7744 32.7866C17.5909 32.4195 17.5603 31.9912 17.698 31.6088C17.8356 31.2111 18.111 30.9052 18.4781 30.7216L25.132 27.4635C25.8203 27.127 26.111 26.301 25.7744 25.6126C25.4379 24.9243 24.6119 24.6337 23.9236 24.9702L17.2697 28.2283C16.2295 28.7331 15.4494 29.6203 15.0823 30.7063C14.7152 31.7924 14.7763 32.9702 15.2811 34.0103C15.6023 34.6528 16.0612 35.1882 16.6119 35.5859C15.6482 36.8555 15.4035 38.5993 16.153 40.1289C16.6578 41.1691 17.545 41.9492 18.631 42.3163C19.0899 42.4692 19.5488 42.5457 20.0077 42.5457C19.9924 43.2341 20.1301 43.9224 20.4513 44.5496C21.2008 46.0792 22.7458 46.9664 24.3366 46.9664C24.979 46.9664 25.6215 46.8287 26.2333 46.5228L27.2123 46.0486C27.2582 46.5687 27.3959 47.0735 27.6253 47.5629C28.3748 49.0926 29.9198 49.9798 31.5106 49.9798C32.153 49.9798 32.7955 49.8421 33.4073 49.5362L50.8605 41.0008C54.7458 39.104 58.3252 36.6566 61.5068 33.735L65.4074 30.1404L74.3405 25.7656C75.0288 25.4291 75.3195 24.6031 74.9829 23.9147L64.0613 1.65848C63.8931 1.32195 63.6177 1.07721 63.2659 0.954842C62.9141 0.832471 62.5317 0.863064 62.2104 1.01603L53.0938 5.46728C52.4055 5.8038 52.1148 6.6298 52.4514 7.31814L62.9141 28.6872ZM62.1799 4.12119L71.8625 23.93L65.2391 27.1729L55.5565 7.36403L62.1799 4.12119Z" fill="white"/>
</svg>
