<svg width="34" height="34" viewBox="0 0 34 34" fill="none" xmlns="http://www.w3.org/2000/svg">
<circle cx="17" cy="17" r="17" fill="#128C7E"/>
<path d="M13.1104 6.84375C9.67053 6.84375 6.84375 9.66675 6.84375 13.1104V21.8896C6.84375 25.3295 9.66675 28.1562 13.1104 28.1562H21.8896C25.3295 28.1562 28.1562 25.3333 28.1562 21.8896V13.1104C28.1562 9.67053 25.3333 6.84375 21.8896 6.84375H13.1104ZM13.1104 8.78125H21.8896C24.285 8.78125 26.2188 10.715 26.2188 13.1104V21.8896C26.2188 24.285 24.285 26.2188 21.8896 26.2188H13.1104C10.715 26.2188 8.78125 24.285 8.78125 21.8896V13.1104C8.78125 10.715 10.715 8.78125 13.1104 8.78125ZM23.2217 10.9004C22.7335 10.9004 22.3438 11.2902 22.3438 11.7783C22.3438 12.2665 22.7335 12.6562 23.2217 12.6562C23.7098 12.6562 24.0996 12.2665 24.0996 11.7783C24.0996 11.2902 23.7098 10.9004 23.2217 10.9004ZM17.5 11.6875C14.3024 11.6875 11.6875 14.3024 11.6875 17.5C11.6875 20.6976 14.3024 23.3125 17.5 23.3125C20.6976 23.3125 23.3125 20.6976 23.3125 17.5C23.3125 14.3024 20.6976 11.6875 17.5 11.6875ZM17.5 13.625C19.6532 13.625 21.375 15.3468 21.375 17.5C21.375 19.6532 19.6532 21.375 17.5 21.375C15.3468 21.375 13.625 19.6532 13.625 17.5C13.625 15.3468 15.3468 13.625 17.5 13.625Z" fill="#F5F5F5"/>
</svg>
