<svg width="36" height="36" viewBox="0 0 36 36" fill="none" xmlns="http://www.w3.org/2000/svg">
<path d="M18 0.52002C8.3617 0.52002 0.52002 8.36094 0.52002 18C0.52002 27.6391 8.3617 35.48 18 35.48C27.6383 35.48 35.48 27.6391 35.48 18C35.48 8.36094 27.6383 0.52002 18 0.52002ZM12.68 25.6H9.64002V14.2H12.68V25.6ZM11.16 11.92C10.3202 11.92 9.64002 11.2398 9.64002 10.4C9.64002 9.56022 10.3202 8.88002 11.16 8.88002C11.9998 8.88002 12.68 9.56022 12.68 10.4C12.68 11.2398 11.9998 11.92 11.16 11.92ZM27.12 25.6H24.08V21.8V19.9C24.08 18.437 22.883 17.24 21.42 17.24C19.957 17.24 18.76 18.437 18.76 19.9V25.6H15.72V14.2H18.76V15.5802C19.6477 14.7275 20.8515 14.2 22.18 14.2C24.9084 14.2 27.12 16.4116 27.12 19.14V25.6Z" fill="#128C7E"/>
</svg>
