<svg width="53" height="94" viewBox="0 0 53 94" fill="none" xmlns="http://www.w3.org/2000/svg">
<g clip-path="url(#clip0_41_9)">
<path d="M30.989 4.87488L28.9312 7.49126L28.8989 66.2599C28.8989 66.4439 28.7456 66.604 28.5519 66.604L11.161 66.66C11.161 66.66 10.5638 66.2599 10.5638 65.4358C10.5638 64.6117 10.5073 63.8756 10.5073 63.8676L6.94839 63.7796C6.94839 63.7796 6.11718 69.2924 10.2894 69.8524C10.2894 69.8524 10.2894 69.8524 10.2975 69.8524H43.3846C43.425 69.8524 43.4895 69.8364 43.5299 69.8284C44.0706 69.7484 44.6677 69.5084 45.3376 68.7883C46.2414 67.8201 46.3302 67.012 46.3705 66.2359C46.3544 63.8516 46.1768 61.4272 46.2495 58.9068C46.2575 58.6348 46.427 58.2747 46.6288 58.0987L46.7417 58.0027C46.7498 57.9947 46.7579 57.9867 46.7659 57.9867C47.0323 57.7947 51.0834 54.8342 52.5925 48.3373C54.263 41.1602 50.3652 34.5432 48.6947 31.7828C41.6253 20.0931 36.4524 12.196 36.4524 12.196V59.3789H40.0678V24.3337C40.0678 24.3337 43.1264 28.4704 47.581 37.0236C47.8393 37.5117 50.6396 42.8165 48.6947 48.8894C47.7344 51.8898 44.24 55.5143 44.24 55.5143C44.24 55.5143 43.1264 56.3385 43.1264 57.9947V65.1638C43.1264 65.1798 43.4007 66.54 42.0127 66.54H32.5546V7.40325L30.989 4.87488Z" fill="#128C7E"/>
<path d="M1.42849 93.872H0.314827V90.0074H1.42849V93.872Z" fill="#128C7E"/>
<path d="M8.41714 93.872H7.34382L6.07683 92.0077C6.02034 91.9277 5.96385 91.8397 5.90736 91.7677C5.90736 91.8797 5.90736 91.9997 5.90736 92.1198V93.872H4.79369V90.0074H5.8428L7.11786 91.7357C7.16628 91.8077 7.22277 91.8797 7.27119 91.9517C7.27926 91.8317 7.28733 91.7197 7.30347 91.5917V90.0074H8.41714V93.872Z" fill="#128C7E"/>
<path d="M12.896 93.944C12.5651 93.944 12.2585 93.928 11.9922 93.904L11.742 93.88V90.1194L11.9841 90.0874C12.3392 90.0394 12.6943 90.0154 13.0493 90.0154C13.7999 90.0154 14.3486 90.1754 14.736 90.4955C15.1476 90.8315 15.3654 91.3036 15.3654 91.9037C15.3654 92.5198 15.1476 93.0398 14.736 93.3999C14.3244 93.7519 13.6949 93.944 12.896 93.944ZM12.8557 93.0398C12.9444 93.0398 13.0251 93.0398 13.0655 93.0398C13.937 93.0398 14.3728 92.6558 14.3728 91.9037C14.3728 91.6076 14.2921 91.3676 14.1307 91.2076C13.929 91.0075 13.59 90.8955 13.1462 90.8955C13.0332 90.8955 12.9364 90.9035 12.8637 90.9035V93.0398H12.8557Z" fill="#128C7E"/>
<path d="M20.3769 94C19.2229 94 18.424 93.1919 18.424 92.0397C18.424 90.8475 19.2471 90.0154 20.4334 90.0154C21.5874 90.0154 22.3864 90.8235 22.3864 91.9757C22.3864 93.1838 21.5794 94 20.3769 94ZM20.4092 90.9115C19.7313 90.9115 19.4892 91.5116 19.4892 92.0237C19.4892 92.5358 19.7717 93.0958 20.4011 93.0958C21.0387 93.0958 21.3211 92.5438 21.3211 91.9917C21.3211 91.4716 21.0306 90.9115 20.4092 90.9115Z" fill="#128C7E"/>
<path d="M29.1006 93.872H28.1968L26.9298 92.0077C26.8975 91.9597 26.8652 91.9117 26.833 91.8637C26.841 91.9277 26.8572 91.9917 26.8733 92.0638L26.8814 92.1198V93.872H25.7677V90.0074H26.7038L27.9789 91.7357C27.9951 91.7597 28.0112 91.7757 28.0193 91.7997C28.0112 91.7597 28.0031 91.7117 27.9951 91.6717L27.987 91.6157V90.0154H29.1006V93.872Z" fill="#128C7E"/>
<path d="M32.7725 90.0154H35.2742V90.8395H33.6037V91.3916H35.2742V92.2237H33.6037V92.8318H35.2742V93.872H32.7725V90.0154Z" fill="#128C7E"/>
<path d="M39.9387 93.992C39.5352 93.992 39.0994 93.888 38.8412 93.744L38.6475 93.632L38.9461 92.7438L39.2366 92.9039C39.4464 93.0159 39.7208 93.0879 39.9629 93.0879C40.084 93.0879 40.4633 93.0639 40.4633 92.7998C40.4633 92.7038 40.4633 92.5758 39.9468 92.3998C39.6643 92.3118 38.7766 92.0317 38.7766 91.1996C38.7766 90.5195 39.398 90.0234 40.2615 90.0234C40.7538 90.0234 41.0685 90.1434 41.2138 90.2155L41.4317 90.3275L41.1008 91.1916L40.8264 91.0556C40.7296 91.0076 40.5197 90.9276 40.2373 90.9276C39.9468 90.9276 39.8096 91.0396 39.8096 91.1516C39.8096 91.2396 39.8096 91.3436 40.3664 91.5357C40.899 91.7197 41.5043 92.0237 41.5043 92.7758C41.5204 93.3759 41.0282 93.992 39.9387 93.992Z" fill="#128C7E"/>
<path d="M45.7975 93.872H44.6839V90.0074H45.7975V93.872Z" fill="#128C7E"/>
<path d="M52.4957 93.872H51.4466L51.0269 92.7679H50.0182L49.6066 93.872H48.5736L50.0505 90.0074H51.0108L52.4957 93.872ZM50.2683 92.1198H50.7848L50.5266 91.4397L50.2683 92.1198Z" fill="#128C7E"/>
<path d="M52.1648 86.3509V86.5589C51.955 86.5589 51.8581 86.4869 51.7613 86.3909H45.1519H44.4579C44.4579 85.8308 44.8776 86.0468 45.1519 85.0707V77.1175C44.8776 76.1414 44.4499 76.3574 44.4579 75.7973H48.3477C48.3477 76.4134 47.8393 76.0933 47.573 77.4455V84.1185L51.5596 84.0785C52.3746 83.9345 52.3262 83.1744 52.7781 83.2624L52.1648 86.3509Z" fill="#128C7E"/>
<path d="M30.981 86.3509V86.5589C30.7711 86.5589 30.6743 86.4869 30.5775 86.3909H23.9681H23.2741C23.2741 85.8308 23.6937 86.0468 23.9681 85.0707V77.1175C23.6937 76.1414 23.266 76.3574 23.2741 75.7973H27.1719C27.1719 76.4134 26.6635 76.0933 26.3972 77.4455V84.1185L30.3838 84.0785C31.1989 83.9345 31.1504 83.1744 31.6024 83.2624L30.981 86.3509Z" fill="#128C7E"/>
<path d="M10.241 86.2389H6.34314C6.34314 85.6548 6.81928 85.9268 7.08559 84.7266V81.9262L3.17969 82.3263L3.16355 84.7906C3.42986 85.9188 3.89792 85.6628 3.89792 86.2389H9.49396e-05C9.49396e-05 85.6388 0.500437 85.9428 0.758678 84.6466V77.3735C0.500437 76.0774 -0.0079751 76.3734 9.49396e-05 75.7813H3.89792C3.89792 76.3494 3.43793 76.1014 3.17162 77.2135L3.17969 80.254L7.11787 79.8379L7.09366 77.2935C6.82734 76.0854 6.34314 76.3654 6.35121 75.7813H10.249C10.249 76.3734 9.7487 76.0774 9.49046 77.3575V84.6546C9.7487 85.9428 10.249 85.6468 10.241 86.2389Z" fill="#128C7E"/>
<path d="M43.2958 85.9268L38.9945 75.7813L37.5258 75.7893V75.7813H36.6784C35.6051 75.7813 36.6865 76.0614 36.6542 76.6294L33.1518 85.7428C32.6918 86.3189 32.4901 85.9668 32.4901 86.4069H32.8774H35.3226H35.8149C35.8149 86.1348 35.5002 86.2388 35.6374 85.6948L36.2023 84.3746L39.9548 84.1585L40.4794 85.7428C40.6408 86.3349 40.2696 85.9988 40.2534 86.4149H40.7618H42.8762H43.3039H43.7074C43.7478 86.1668 43.4814 86.0948 43.2958 85.9268ZM36.9447 82.5023L38.0342 79.9099L39.1317 82.3263L36.9447 82.5023Z" fill="#128C7E"/>
<path d="M21.9748 85.9268L17.6735 75.7813L16.2047 75.7893V75.7813H15.3574C14.2841 75.7813 15.3654 76.0614 15.3332 76.6294L11.8308 85.7428C11.3708 86.3189 11.169 85.9668 11.169 86.4069H11.5564H14.0016H14.4939C14.4939 86.1348 14.1791 86.2388 14.3163 85.6948L14.8812 84.3746L18.6338 84.1585L19.1584 85.7428C19.3198 86.3349 18.9485 85.9988 18.9324 86.4149H19.4408H21.5552H21.9829H22.3864C22.4187 86.1668 22.1604 86.0948 21.9748 85.9268ZM15.6237 82.5023L16.7131 79.9099L17.8107 82.3263L15.6237 82.5023Z" fill="#128C7E"/>
<path d="M20.5868 59.5789H24.2748V15.0524L20.5868 20.4132V59.5789Z" fill="#128C7E"/>
<path d="M28.5438 1.45837C24.6541 7.22722 20.7562 12.9961 16.8665 18.7649C16.8665 32.3349 16.8665 45.9129 16.8665 59.4829C14.1549 59.5389 11.4515 59.5869 8.73994 59.6429C8.29609 59.4589 7.70698 59.1789 7.06137 58.7788C6.85962 58.6508 5.88315 58.0347 4.79369 56.9545C3.76073 55.9224 3.14741 54.9863 2.97794 54.7142C2.46952 53.9141 2.21128 53.306 1.7755 52.2739C1.07341 50.6096 0.839376 49.5375 0.758675 49.1534C0.548854 48.1132 0.508504 47.3451 0.460084 46.377C0.379384 44.6807 0.476224 43.4245 0.492364 43.1445C0.516574 42.8725 0.629555 41.5443 0.968496 39.992C1.57375 37.2636 2.57443 35.1913 3.42986 33.4391C4.6565 30.9427 5.80245 29.1745 7.10172 27.1902C8.3203 25.3259 9.41782 23.8217 10.2006 22.7735C10.2006 24.8538 10.2087 26.9421 10.2087 29.0224C9.53887 29.9266 8.74801 31.0787 7.96522 32.4869C7.65856 33.031 6.84348 34.5192 5.97192 36.7116C4.78562 39.712 4.11581 41.4163 3.94634 43.8646C3.87371 44.9368 3.74459 47.1931 4.70492 49.8255C5.28597 51.4097 6.02034 52.4899 6.27051 52.8339C7.40838 54.4262 8.70766 55.4183 9.56308 55.9784C10.8382 55.9784 12.1213 55.9784 13.3964 55.9784C13.3721 43.2725 13.3479 30.5747 13.3237 17.8688C19.7152 8.17136 24.4362 1.09832 24.9204 0.546236C25.2754 0.130175 25.687 0.050163 25.687 0.050163C25.9614 -0.0538523 26.2358 0.0261594 26.4698 0.0901689C26.7765 0.178182 26.9863 0.330204 27.4059 0.610245C27.6722 0.794273 28.1 1.08232 28.5438 1.45837Z" fill="#128C7E"/>
</g>
<defs>
<clipPath id="clip0_41_9">
<rect width="53" height="94" fill="white"/>
</clipPath>
</defs>
</svg>
