<svg width="34" height="34" viewBox="0 0 34 34" fill="none" xmlns="http://www.w3.org/2000/svg">
<circle cx="17" cy="17" r="17" fill="#128C7E"/>
<path d="M12.5 7C9.462 7 7 9.462 7 12.5C7 13.731 7.4088 14.8623 8.0918 15.7793C8.0378 16.1793 8 16.585 8 17C8 21.971 12.029 26 17 26C17.415 26 17.8207 25.9622 18.2207 25.9082C19.1377 26.5912 20.269 27 21.5 27C24.538 27 27 24.538 27 21.5C27 20.269 26.5912 19.1377 25.9082 18.2207C25.9622 17.8207 26 17.415 26 17C26 12.029 21.971 8 17 8C16.585 8 16.1793 8.0378 15.7793 8.0918C14.8623 7.4088 13.731 7 12.5 7ZM12.5 9C13.253 9 13.9749 9.24031 14.5859 9.69531L15.2383 10.1836L16.0469 10.0742C16.4209 10.0232 16.724 10 17 10C20.86 10 24 13.14 24 17C24 17.276 23.9768 17.5781 23.9258 17.9531L23.8164 18.7617L24.3047 19.4141C24.7597 20.0251 25 20.747 25 21.5C25 23.43 23.43 25 21.5 25C20.747 25 20.0251 24.7597 19.4141 24.3047L18.7617 23.8164L17.9531 23.9258C17.5781 23.9758 17.276 24 17 24C13.14 24 10 20.86 10 17C10 16.724 10.0232 16.4219 10.0742 16.0469L10.1836 15.2383L9.69531 14.5859C9.24031 13.9749 9 13.253 9 12.5C9 10.57 10.57 9 12.5 9ZM16.8496 12C13.0896 12 12.8125 14.2089 12.8125 14.7539C12.8125 15.8379 13.4341 16.6799 14.4961 17.0879C15.6251 17.5219 16.9954 17.7821 17.7734 17.9941C18.9904 18.3271 18.8359 18.9977 18.8359 19.0957C18.8359 20.1257 17.4252 20.391 16.8242 20.334C16.1442 20.27 15.4553 20.4643 14.7383 18.9883C14.6103 18.7243 14.375 18.1465 13.668 18.1465C13.362 18.1465 12.5977 18.3794 12.5977 19.1094C12.5977 20.5414 14.1965 22 16.9785 22C18.4325 22 21.1445 21.4967 21.1465 18.8887C21.1465 16.6177 18.8559 16.2192 17.1719 15.7852C16.7109 15.6662 14.9922 15.4762 14.9922 14.5762C14.9922 14.3092 15.3659 13.668 16.7129 13.668C18.0999 13.668 18.4019 14.3173 18.5859 14.6543C18.7399 14.9213 18.8665 15.1276 19.0215 15.2266C19.6365 15.6196 20.1975 15.3183 20.3965 15.1113C20.5955 14.9043 20.6953 14.676 20.6953 14.416C20.6953 13.285 19.3576 12 16.8496 12Z" fill="#F5F5F5"/>
</svg>
